<svg width="58" height="31" viewBox="0 0 58 31" fill="none" xmlns="http://www.w3.org/2000/svg">
<path d="M0.75 1.5H7.65V11.55H7.68C8.14 10.45 8.78 9.6 9.6 9C10.42 8.4 11.35 8.1 12.39 8.1C13.75 8.1 14.8 8.5 15.54 9.3C16.28 10.08 16.65 11.2 16.65 12.66V24H9.75V14.79C9.75 14.39 9.67 14.09 9.51 13.89C9.35 13.67 9.12 13.56 8.82 13.56C8.46 13.56 8.17 13.7 7.95 13.98C7.75 14.26 7.65 14.65 7.65 15.15V24H0.75V1.5ZM21.2151 7.2C20.0951 7.2 19.1851 6.87 18.4851 6.21C17.8051 5.55 17.4651 4.68 17.4651 3.6C17.4651 2.52 17.8051 1.65 18.4851 0.989999C19.1851 0.33 20.0951 -3.57628e-07 21.2151 -3.57628e-07C22.3351 -3.57628e-07 23.2351 0.33 23.9151 0.989999C24.6151 1.65 24.9651 2.52 24.9651 3.6C24.9651 4.68 24.6151 5.55 23.9151 6.21C23.2351 6.87 22.3351 7.2 21.2151 7.2ZM17.7651 8.4H24.6651V24H17.7651V8.4ZM36.3761 8.1C37.7161 8.1 38.7861 8.63 39.5861 9.69C40.4061 10.75 40.8561 12.22 40.9361 14.1L35.1761 15.54C35.1561 13.78 34.7261 12.9 33.8861 12.9C33.5061 12.9 33.2061 13.09 32.9861 13.47C32.7861 13.83 32.6861 14.34 32.6861 15V24H25.7861V8.4H31.3361L32.3561 11.31H32.3861C32.7461 10.29 33.2761 9.5 33.9761 8.94C34.6761 8.38 35.4761 8.1 36.3761 8.1ZM47.8714 30.84C46.5714 30.84 45.2514 30.69 43.9114 30.39C42.5914 30.09 41.4414 29.67 40.4614 29.13L42.1414 24C42.8614 24.4 43.6514 24.71 44.5114 24.93C45.3714 25.17 46.1914 25.29 46.9714 25.29C48.1314 25.29 49.0414 24.98 49.7014 24.36C50.3814 23.76 50.7214 22.94 50.7214 21.9V20.55H50.6914C50.2514 21.63 49.6414 22.48 48.8614 23.1C48.0814 23.7 47.2014 24 46.2214 24C44.7614 24 43.6214 23.53 42.8014 22.59C42.0014 21.63 41.6014 20.3 41.6014 18.6V8.4H48.5014V17.07C48.5014 17.55 48.5814 17.93 48.7414 18.21C48.9214 18.47 49.1614 18.6 49.4614 18.6C49.8214 18.6 50.1014 18.46 50.3014 18.18C50.5014 17.88 50.6014 17.47 50.6014 16.95V8.4H57.5014V22.5C57.5014 24.2 57.1014 25.67 56.3014 26.91C55.5214 28.17 54.4014 29.14 52.9414 29.82C51.5014 30.5 49.8114 30.84 47.8714 30.84Z" fill="#212523"/>
</svg>
